<svg xmlns="http://www.w3.org/2000/svg" viewBox="0 0 662 662"><path d="M0 0h662v662H0z" fill="#ffe100"/><linearGradient id="a" gradientUnits="userSpaceOnUse" x1="-141.068" y1="1229.29" x2="-129.375" y2="1232.746" gradientTransform="matrix(77.3572 0 0 -77.3572 10528.022 95825.156)"><stop offset="0" stop-color="#ffe419"/><stop offset=".34" stop-color="#fff"/><stop offset=".66" stop-color="#fff"/><stop offset="1" stop-color="#ffe419"/></linearGradient><path d="M501.6 468.8c-147.2 26-294.6 60.5-441.5 104-20.1 5.9-40.1 12-60 18.3V643c24.8-6.8 49.7-13.9 74.5-21.3 146.8-43.5 289.3-94.7 427-152.9z" fill="url(#a)"/><linearGradient id="b" gradientUnits="userSpaceOnUse" x1="-140.064" y1="1230.361" x2="-128.838" y2="1234.011" gradientTransform="matrix(77.3572 0 0 -77.3572 10528.022 95825.156)"><stop offset="0" stop-color="#ffe419"/><stop offset=".355" stop-color="#fff"/><stop offset=".645" stop-color="#fff"/><stop offset="1" stop-color="#ffe419"/></linearGradient><path d="M543.3 371.4C402.1 401.5 260.7 439.2 119.8 485 79.5 498.1 39.6 511.8 0 526v43.7c44.7-12.9 89.3-26.6 134-41.1 140.8-45.8 277.4-98.4 409.3-157.2z" fill="url(#b)"/><linearGradient id="c" gradientUnits="userSpaceOnUse" x1="-139.12" y1="1231.37" x2="-128.323" y2="1235.219" gradientTransform="matrix(77.3572 0 0 -77.3572 10528.022 95825.156)"><stop offset="0" stop-color="#ffe419"/><stop offset=".37" stop-color="#fff"/><stop offset=".63" stop-color="#fff"/><stop offset="1" stop-color="#ffe419"/></linearGradient><path d="M583.4 278.4C447.5 312 311.6 352.8 176.3 401 116.7 422.3 57.9 444.7 0 468.3V504c63.6-19.4 127.1-40.3 190.5-62.9 135.3-48.3 266.4-102.7 392.9-162.7z" fill="url(#c)"/><linearGradient id="d" gradientUnits="userSpaceOnUse" x1="-138.225" y1="1232.326" x2="-127.833" y2="1236.378" gradientTransform="matrix(77.3572 0 0 -77.3572 10528.022 95825.156)"><stop offset="0" stop-color="#ffe419"/><stop offset=".385" stop-color="#fff"/><stop offset=".615" stop-color="#fff"/><stop offset="1" stop-color="#ffe419"/></linearGradient><path d="M621.6 189.3C490.8 226.4 360.1 270.2 230 320.9c-78.2 30.5-154.9 63-230 97.4v26.2c81.6-26.3 163-55.3 244.3-87 130-50.8 255.9-107 377.3-168.2z" fill="url(#d)"/><linearGradient id="e" gradientUnits="userSpaceOnUse" x1="-137.368" y1="1233.238" x2="-127.357" y2="1237.498" gradientTransform="matrix(77.3572 0 0 -77.3572 10528.022 95825.156)"><stop offset="0" stop-color="#ffe419"/><stop offset=".4" stop-color="#fff"/><stop offset=".6" stop-color="#fff"/><stop offset="1" stop-color="#ffe419"/></linearGradient><path d="M658.5 103.3c-126 40.7-251.8 87.5-377 140.8-96.3 41-190.2 84.8-281.5 131.4V391c98.8-34 197.4-71.9 295.6-113.6 125.2-53.3 246.2-111.5 362.9-174.1z" fill="url(#e)"/><linearGradient id="f" gradientUnits="userSpaceOnUse" x1="-136.547" y1="1234.11" x2="-126.893" y2="1238.585" gradientTransform="matrix(77.3572 0 0 -77.3572 10528.022 95825.156)"><stop offset="0" stop-color="#ffe626"/><stop offset=".415" stop-color="#fff"/><stop offset=".585" stop-color="#fff"/><stop offset="1" stop-color="#ffe419"/></linearGradient><path d="M662 38.2v-6.4C551.4 73 441 119.1 331.2 170 217.1 222.8 106.7 279.6 0 339.8v3.7c115.4-42.6 230.6-90.4 345.1-143.5C454.1 149.5 559.8 95.4 662 38.2z" fill="url(#f)"/><linearGradient id="g" gradientUnits="userSpaceOnUse" x1="-135.763" y1="1234.944" x2="-126.443" y2="1239.644" gradientTransform="matrix(77.3572 0 0 -77.3572 10528.022 95825.156)"><stop offset="0" stop-color="#ffe733"/><stop offset=".43" stop-color="#fff"/><stop offset=".57" stop-color="#fff"/><stop offset="1" stop-color="#ffe419"/></linearGradient><path d="M42.2 285c117.2-48 234.3-101.3 350.6-159.9C472.1 85.1 549.6 43.4 625.3 0h-39.5c-69 30.9-137.9 63.6-206.5 98.2C262.9 156.8 150.5 219.3 42.2 285z" fill="url(#g)"/><linearGradient id="h" gradientUnits="userSpaceOnUse" x1="-135" y1="1235.753" x2="-126" y2="1240.684" gradientTransform="matrix(77.3572 0 0 -77.3572 10528.022 95825.156)"><stop offset="0" stop-color="#ffe940"/><stop offset=".445" stop-color="#fff"/><stop offset=".555" stop-color="#fff"/><stop offset="1" stop-color="#ffe419"/></linearGradient><path d="M100.8 222c113.1-51.7 226-108.3 338.2-169.8C470.3 35 501.3 17.6 532.1 0h-53.7c-17.5 9.3-35 18.8-52.4 28.4C313.7 89.8 205.2 154.5 100.8 222z" fill="url(#h)"/><linearGradient id="i" gradientUnits="userSpaceOnUse" x1="-134.245" y1="1236.551" x2="-125.574" y2="1241.709" gradientTransform="matrix(77.3572 0 0 -77.3572 10528.022 95825.156)"><stop offset="0" stop-color="#ffea4c"/><stop offset=".46" stop-color="#fff"/><stop offset=".54" stop-color="#fff"/><stop offset="1" stop-color="#ffe419"/></linearGradient><path d="M450.4 0h-46.1c-84.1 51.6-166 104.8-245.4 159.5C256.3 109.9 353.6 56.7 450.4 0z" fill="url(#i)"/><linearGradient id="j" gradientUnits="userSpaceOnUse" x1="-133.484" y1="1237.353" x2="-125.133" y2="1242.745" gradientTransform="matrix(77.3572 0 0 -77.3572 10528.022 95825.156)"><stop offset="0" stop-color="#ffec59"/><stop offset=".475" stop-color="#fff"/><stop offset=".525" stop-color="#fff"/><stop offset="1" stop-color="#ffe419"/></linearGradient><path d="M382.4 0h-29.1c-46.1 31.9-91.5 64.2-136.2 96.9C272.3 65.7 327.4 33.4 382.4 0z" fill="url(#j)"/><path d="M239.9 637.8l35.7-161.1h44.1l-19.2 85.7 35.6-43h49.3l-44.2 53.7 18.2 64.6h-44l-18.2-61.2-14.4 61.2-42.9.1zm-159-80.9l31 81h42.2l36.4-161.1H147l-18.4 81.9-30.5-82h-44l-36 161.1h44.3c5.1-25.8 11.8-53 18.5-80.9zm137.9 80.9l26.4-118.3H202l-26.4 118.3h43.2zm-14.6-144.2c0 3.7.9 16.8 24.6 16.8 19.7 0 27.3-12.6 27.3-22 0-6.3-5.2-17.3-24.6-17.3-17.9 0-27.3 12-27.3 22.5zM620.3 518c-18.5-5.5-41.4 3.6-52.7 19.3 1.1-4.9 2.3-10.5 3.6-17h-43.9l-25.7 117.6h43.7l14.6-66.7c2.7-12.3 12.5-17.5 21.3-15.3 3.8 1 9 3.9 7.2 14.1l-14.8 67.9h43.2l19.8-90.6c4.1-20-12.3-28.1-16.3-29.3zM473.4 627.2c19-15.5 28.3-41.7 28-66.4-.3-23.7-20.4-46.2-55.3-46.2-66.6 0-76.3 51.9-78.2 61.4-4.9 24 .5 55.1 31.8 63.3 20.7 5.4 52.9 4.8 73.7-12.1zm-48.9-68.6c3.1-8.6 11.7-10.5 15.5-10.6 9.5-.1 12.2 5.6 11.3 10.9-2.3 14.8-7.4 33.6-9.3 39.5 0 .1 0 .2-.1.2-2.1 6.5-8.2 10.3-15.5 10.3-7.3 0-11.8-4.6-11.1-10.5 1.2-9.8 7.4-34.9 9.2-39.8z" fill="#150301"/></svg>